# xmcd
#
# Track frame offsets:
#	150
#	15479
#	29837
#	43268
#	57722
#	77156
#	96842
#	111544
#	128879
#	143139
#	157105
#	173255
#	187178
#	206430
#	219203
#
# Disc length: 3177 seconds
#
# Revision: 0
# Processed by: cddbd v1.5.2PL0 Copyright (c) Steve Scherf et al.
# Submitted via: audiograbber 1.83.01
#
DISCID=dc0c670f
DTITLE=Cody Johnson - Ain't Nothin' To It
DYEAR=2019
DGENRE=Country
TTITLE0=Ain't Nothin' To It
TTITLE1=Noise
TTITLE2=Fenceposts
TTITLE3=Understand Why
TTITLE4=Long Haired Country Boy
TTITLE5=Nothin' On You
TTITLE6=Honky Tonk Mood
TTITLE7=Monday Morning Merle
TTITLE8=Y'all People (Dedicated To The "CoJo Nation")
TTITLE9=Where Cowboys Are King
TTITLE10=On My Way to You
TTITLE11=Doubt Me Now
TTITLE12=Dear Rodeo
TTITLE13=Husbands And Wives (Live)
TTITLE14=His Name Is Jesus (Live)
EXTD=
EXTT0=
EXTT1=
EXTT2=
EXTT3=
EXTT4=
EXTT5=
EXTT6=
EXTT7=
EXTT8=
EXTT9=
EXTT10=
EXTT11=
EXTT12=
EXTT13=
EXTT14=
PLAYORDER=
